<?xml version="1.0" encoding="UTF-8"?>
<!-- Generator: Adobe Illustrator 17.1.0, SVG Export Plug-In . SVG Version: 6.00 Build 0)  -->
<!DOCTYPE svg PUBLIC "-//W3C//DTD SVG 1.1//EN" "http://www.w3.org/Graphics/SVG/1.1/DTD/svg11.dtd">
<svg version="1.1" id="Layer_1" xmlns="http://www.w3.org/2000/svg" xmlns:xlink="http://www.w3.org/1999/xlink" x="0px" y="0px" viewBox="0 0 211.6 65" enable-background="new 0 0 211.6 65" xml:space="preserve">
<polygon fill="#0099C9" points="38.7,40.9 21.5,46.5 21.5,28.4 "/>
<polygon fill="#0080BB" points="21.5,28.4 21.5,46.5 4.3,40.9 "/>
<polygon fill="#CCE5F1" points="21.5,8.2 38.7,22.8 21.5,28.4 "/>
<polygon fill="#86C5E0" points="38.7,22.8 38.7,40.9 21.5,28.4 "/>
<polygon fill="#95CBE3" points="21.6,8.2 21.5,28.4 4.3,22.8 "/>
<polygon fill="#53B2D6" points="4.3,22.8 21.5,28.4 4.3,40.9 "/>
<g>
	<path fill="#FFFFFF" d="M69,37.4c0-1.2-0.5-2.2-1.4-3c-0.9-0.8-2.1-1.5-3.4-2.1c-1.4-0.6-2.9-1.3-4.5-2c-1.6-0.7-3.1-1.5-4.5-2.5   c-1.4-1-2.5-2.2-3.4-3.7c-0.9-1.5-1.4-3.3-1.4-5.6c0-2,0.3-3.7,1-5.1c0.7-1.5,1.6-2.7,2.8-3.6c1.2-1,2.7-1.7,4.3-2.2   c1.7-0.5,3.5-0.7,5.6-0.7c2.4,0,4.6,0.2,6.7,0.6c2.1,0.4,3.8,1,5.2,1.8l-2.5,6.7c-0.9-0.5-2.1-1-3.8-1.5c-1.7-0.4-3.5-0.7-5.5-0.7   c-1.9,0-3.3,0.4-4.3,1.1c-1,0.7-1.5,1.7-1.5,3c0,1.2,0.5,2.1,1.4,2.9c0.9,0.8,2.1,1.5,3.4,2.1c1.4,0.7,2.9,1.3,4.5,2   c1.6,0.7,3.1,1.5,4.5,2.5c1.4,1,2.5,2.2,3.4,3.7c0.9,1.5,1.4,3.3,1.4,5.4c0,2.2-0.4,4-1.1,5.6c-0.7,1.6-1.7,2.9-3,3.9   c-1.3,1-2.9,1.8-4.7,2.3c-1.8,0.5-3.9,0.8-6.1,0.8c-2.9,0-5.5-0.3-7.7-0.8c-2.2-0.5-3.8-1.1-4.9-1.6l2.6-6.8c0.4,0.2,1,0.5,1.7,0.8   c0.7,0.3,1.4,0.5,2.3,0.8c0.9,0.2,1.8,0.4,2.7,0.6c0.9,0.2,1.9,0.2,2.9,0.2c2.4,0,4.2-0.4,5.4-1.2C68.4,40.2,69,39,69,37.4z"/>
	<path fill="#FFFFFF" d="M90.7,35.5l1,4.5h0.3l0.8-4.6l4.4-16.3l7.8,0l-8.8,26.2c-0.7,2.2-1.4,4.2-2.1,6c-0.7,1.8-1.4,3.4-2.2,4.7   c-0.8,1.3-1.7,2.3-2.7,3c-1,0.7-2.2,1.1-3.5,1.1c-2,0-3.6-0.3-4.8-1l1.4-6c0.6,0.2,1.2,0.3,1.7,0.3c0.9,0,1.8-0.4,2.6-1.1   c0.8-0.8,1.5-2.1,1.9-4.1l-12.1-29h9.1L90.7,35.5z"/>
	<path fill="#FFFFFF" d="M119.9,40.3c0-0.8-0.3-1.4-1-1.9c-0.7-0.5-1.5-0.9-2.4-1.3c-1-0.4-2-0.8-3.2-1.2c-1.2-0.4-2.2-1-3.2-1.7   c-1-0.7-1.8-1.6-2.4-2.7c-0.7-1.1-1-2.5-1-4.3c0-2.9,0.9-5.1,2.6-6.6c1.7-1.5,4.2-2.3,7.4-2.3c2.2,0,4.2,0.2,6,0.7   c1.8,0.5,3.2,1,4.2,1.6l-1.7,5.5c-0.9-0.4-2-0.7-3.4-1.1c-1.4-0.4-2.7-0.6-4.1-0.6c-2.2,0-3.4,0.9-3.4,2.6c0,0.7,0.3,1.3,1,1.7   c0.7,0.4,1.5,0.8,2.4,1.2c1,0.4,2,0.8,3.2,1.2c1.2,0.4,2.2,1,3.2,1.7c1,0.7,1.8,1.6,2.4,2.6c0.7,1.1,1,2.5,1,4.2   c0,2.9-0.9,5.3-2.8,6.9c-1.9,1.7-4.7,2.5-8.5,2.5c-2.1,0-4-0.3-5.8-0.8c-1.8-0.5-3.3-1.1-4.4-1.8l2.1-5.6c0.9,0.5,2.1,1,3.5,1.5   c1.5,0.5,3,0.7,4.5,0.7c1.1,0,2-0.2,2.7-0.6C119.5,42,119.9,41.3,119.9,40.3z"/>
	<path fill="#FFFFFF" d="M129.6,19.2l4,0v-5.5l7.6-2.1v7.6l7.1,0v6.4h-7.1l0,11.2c0,2,0.2,3.5,0.6,4.3c0.4,0.9,1.2,1.3,2.3,1.3   c0.8,0,1.4-0.1,2-0.2c0.6-0.2,1.2-0.4,1.9-0.7l1.3,5.8c-1,0.5-2.3,0.9-3.7,1.3c-1.4,0.3-2.8,0.5-4.2,0.5c-2.7,0-4.6-0.7-5.9-2.1   c-1.3-1.4-1.9-3.6-1.9-6.8V25.6h-4L129.6,19.2z"/>
	<path fill="#FFFFFF" d="M175.6,45.8c-1.2,0.9-2.7,1.7-4.7,2.4c-2,0.6-4.1,1-6.4,1c-4.7,0-8.1-1.4-10.3-4.1   c-2.2-2.7-3.3-6.5-3.3-11.2c0-5.1,1.2-8.9,3.7-11.5c2.4-2.6,5.9-3.8,10.3-3.8c1.5,0,2.9,0.2,4.3,0.6c1.4,0.4,2.6,1,3.7,1.9   c1.1,0.9,2,2.1,2.6,3.6c0.7,1.5,1,3.4,1,5.6c0,0.8,0,1.7-0.1,2.6c-0.1,0.9-0.2,1.9-0.4,2.9l-17.4,0c0.1,2.4,0.7,4.3,1.9,5.5   c1.1,1.2,3,1.9,5.6,1.9c1.6,0,3-0.2,4.3-0.7c1.3-0.5,2.2-1,2.9-1.5L175.6,45.8z M164.8,24.5c-2,0-3.4,0.6-4.4,1.8   c-0.9,1.2-1.5,2.8-1.7,4.7h10.8c0.2-2.1-0.2-3.7-1-4.8C167.7,25,166.5,24.5,164.8,24.5z"/>
	<path fill="#FFFFFF" d="M190.9,36.2h-2v12l-7.6,0l0-40.7h7.6l0,24l1.7-0.8l6.6-11.6h8.3l-7,11l-3,2.2l3.2,2.3l7.8,13.5H198   L190.9,36.2z"/>
</g>
</svg>